<svg xmlns="http://www.w3.org/2000/svg" xmlns:xlink="http://www.w3.org/1999/xlink" width="128" height="128" class="icon" p-id="1444" t="1567661551521" version="1.1" viewBox="0 0 1024 1024"><defs><style type="text/css"/></defs><path fill="#333" d="M832 832c0 32-32 64-64 64H256c-32 0-64-32-64-64V192H128v640c0 70.4 57.6 128 128 128h512c70.4 0 128-57.6 128-128V192h-64v640zM96 128h832v64h-832z" p-id="1445"/><path fill="#333" d="M96 160m-32 0a32 32 0 1 0 64 0 32 32 0 1 0-64 0Z" p-id="1446"/><path fill="#333" d="M416 352m-32 0a32 32 0 1 0 64 0 32 32 0 1 0-64 0Z" p-id="1447"/><path fill="#333" d="M416 736m-32 0a32 32 0 1 0 64 0 32 32 0 1 0-64 0Z" p-id="1448"/><path fill="#333" d="M928 160m-32 0a32 32 0 1 0 64 0 32 32 0 1 0-64 0Z" p-id="1449"/><path fill="#333" d="M576 192H448c-38.4 0-64-25.6-64-64s25.6-64 64-64h128c38.4 0 64 25.6 64 64s-25.6 64-64 64zM384 352h64v384H384z" p-id="1450"/><path fill="#333" d="M608 352m-32 0a32 32 0 1 0 64 0 32 32 0 1 0-64 0Z" p-id="1451"/><path fill="#333" d="M608 736m-32 0a32 32 0 1 0 64 0 32 32 0 1 0-64 0Z" p-id="1452"/><path fill="#333" d="M576 352h64v384H576z" p-id="1453"/></svg>